<svg width="1114" height="305" viewBox="0 0 1114 305" fill="none" xmlns="http://www.w3.org/2000/svg">
<ellipse cx="930.108" cy="197.5" rx="13.5" ry="26.5" fill="#D9D9D9"/>
<path d="M901.278 155C909.147 155 916.298 158.718 921.608 164.783C917.366 169.612 914.41 180.442 914.41 193.028C914.41 203.899 916.616 213.459 919.95 218.975C914.851 223.992 908.355 227 901.278 227C884.892 227 871.608 210.882 871.608 191C871.608 171.118 884.892 155 901.278 155Z" fill="black"/>
<path d="M884.199 151.737C901.669 149.9 918.25 155.897 930.779 167.019C922.651 177.937 918.383 194.49 920.27 212.44C920.548 215.086 920.95 217.674 921.467 220.193C921.006 220.255 920.544 220.313 920.078 220.362C896.031 222.89 874.592 206.443 872.194 183.628C870.937 171.665 875.165 160.327 882.937 151.883C883.356 151.83 883.777 151.781 884.199 151.737Z" fill="black"/>
<path d="M902.426 225.25C911.092 225.25 917.926 222.167 922.926 216C927.926 209.667 930.426 201.167 930.426 190.5C930.426 183.5 929.259 177.417 926.926 172.25C924.759 166.917 921.509 162.833 917.176 160C913.009 157.167 908.092 155.75 902.426 155.75C896.926 155.75 891.842 157.333 887.176 160.5C882.676 163.5 879.092 167.667 876.426 173C873.759 178.333 872.426 184.167 872.426 190.5C872.426 197 873.759 202.917 876.426 208.25C879.092 213.417 882.676 217.583 887.176 220.75C891.842 223.75 896.926 225.25 902.426 225.25ZM905.926 129.5C917.092 129.5 926.926 132.083 935.426 137.25C944.092 142.25 950.759 149.417 955.426 158.75C960.259 168.083 962.676 178.667 962.676 190.5C962.676 202.333 960.259 212.917 955.426 222.25C950.759 231.583 944.092 238.833 935.426 244C926.926 249.167 917.092 251.75 905.926 251.75C900.926 251.75 895.092 250.417 888.426 247.75C881.926 245.083 876.342 240.5 871.676 234L872.176 229.75V303.75H840.176V129.5H872.176V150.25L871.676 147.25C876.176 140.917 881.759 136.417 888.426 133.75C895.259 130.917 901.092 129.5 905.926 129.5Z" fill="#274E63"/>
<path d="M739.791 252.25C728.624 252.25 718.708 249.667 710.041 244.5C701.541 239.333 694.958 232.167 690.291 223C685.624 213.667 683.291 203.083 683.291 191.25C683.291 179.417 685.624 168.833 690.291 159.5C694.958 150.167 701.541 142.917 710.041 137.75C718.708 132.583 728.624 130 739.791 130C746.124 130 752.374 131.5 758.541 134.5C764.874 137.333 770.124 141.75 774.291 147.75L773.041 149.5V129.75H805.291V251.5H773.041V232.5L774.291 234.5C770.124 240.667 764.874 245.167 758.541 248C752.374 250.833 746.124 252.25 739.791 252.25ZM743.541 225.75C748.874 225.75 753.791 224.25 758.291 221.25C762.791 218.25 766.374 214.167 769.041 209C771.874 203.667 773.291 197.667 773.291 191C773.291 184.5 771.874 178.667 769.041 173.5C766.374 168.167 762.791 164 758.291 161C753.791 158 748.874 156.5 743.541 156.5C737.708 156.5 732.708 157.917 728.541 160.75C724.374 163.583 721.124 167.583 718.791 172.75C716.458 177.917 715.291 184 715.291 191C715.291 198.167 716.458 204.333 718.791 209.5C721.124 214.667 724.374 218.667 728.541 221.5C732.708 224.333 737.708 225.75 743.541 225.75Z" fill="#274E63"/>
<path d="M591.359 251C580.193 251 570.276 248.417 561.609 243.25C553.109 238.083 546.443 230.917 541.609 221.75C536.943 212.417 534.609 201.833 534.609 190C534.609 178 536.943 167.417 541.609 158.25C546.443 148.917 553.109 141.667 561.609 136.5C570.276 131.167 580.193 128.5 591.359 128.5C596.526 128.5 602.276 129.833 608.609 132.5C615.109 135 620.776 139.583 625.609 146.25L625.109 150.25V69.75H657.109V250.5H625.109V231.75L625.609 233.5C620.776 239.833 615.026 244.333 608.359 247C601.693 249.667 596.026 251 591.359 251ZM594.859 225C600.359 225 605.359 223.5 609.859 220.5C614.526 217.5 618.193 213.417 620.859 208.25C623.693 202.917 625.109 197 625.109 190.5C625.109 184 623.693 178.083 620.859 172.75C618.193 167.417 614.526 163.25 609.859 160.25C605.359 157.25 600.359 155.75 594.859 155.75C589.193 155.75 584.193 157.167 579.859 160C575.693 162.833 572.443 166.833 570.109 172C567.776 177.167 566.609 183.333 566.609 190.5C566.609 197.5 567.776 203.583 570.109 208.75C572.443 213.917 575.693 217.917 579.859 220.75C584.193 223.583 589.193 225 594.859 225Z" fill="#274E63"/>
<path d="M448.852 225C454.685 225 459.935 223.5 464.602 220.5C469.268 217.333 472.852 213.167 475.352 208C477.852 202.667 479.102 196.833 479.102 190.5C479.102 184.167 477.852 178.417 475.352 173.25C472.852 168.083 469.268 164 464.602 161C459.935 157.833 454.685 156.25 448.852 156.25C443.352 156.25 438.518 157.667 434.352 160.5C430.185 163.167 426.935 167.083 424.602 172.25C422.268 177.417 421.102 183.5 421.102 190.5C421.102 197.5 422.268 203.583 424.602 208.75C426.935 213.917 430.185 217.917 434.352 220.75C438.518 223.583 443.352 225 448.852 225ZM511.102 241.25C511.102 252.75 508.602 263.333 503.602 273C498.602 282.667 491.352 290.333 481.852 296C472.518 301.667 461.685 304.5 449.352 304.5C438.185 304.5 427.852 302.167 418.352 297.5C409.018 292.833 401.602 285.667 396.102 276L420.852 258.75C425.685 265.25 430.102 269.75 434.102 272.25C438.102 274.917 443.185 276.25 449.352 276.25C458.685 276.25 465.935 273.167 471.102 267C476.435 261 479.102 253.75 479.102 245.25V233.75L479.602 236.25C474.935 241.583 469.518 245.5 463.352 248C457.185 250.5 451.268 251.75 445.602 251.75C434.435 251.75 424.602 249.167 416.102 244C407.602 238.667 400.935 231.417 396.102 222.25C391.435 212.917 389.102 202.417 389.102 190.75C389.102 178.917 391.435 168.417 396.102 159.25C400.935 149.917 407.602 142.667 416.102 137.5C424.602 132.167 434.435 129.5 445.602 129.5C451.435 129.5 457.435 130.917 463.602 133.75C469.935 136.583 475.268 141.083 479.602 147.25L479.102 149V129.5H511.102V241.25Z" fill="#274E63"/>
<path d="M331.088 187.25C331.088 177.583 328.921 170.167 324.588 165C320.421 159.833 314.171 157.25 305.838 157.25C301.171 157.417 296.838 158.75 292.838 161.25C289.005 163.583 286.005 167 283.838 171.5C281.671 176 280.588 181.25 280.588 187.25V251.5H248.588V130H280.588V153.75L277.088 153C280.255 146.167 285.255 140.75 292.088 136.75C298.921 132.583 305.838 130.5 312.838 130.5C320.505 130.5 328.088 132.25 335.588 135.75C343.255 139.25 349.755 145.167 355.088 153.5C360.588 161.833 363.338 172.917 363.338 186.75V251.5H331.088V187.25Z" fill="#274E63"/>
<path d="M132.889 198C132.889 206.833 135.139 213.583 139.639 218.25C144.139 222.917 150.305 225.25 158.139 225.25C165.972 225.083 172.139 222.5 176.639 217.5C181.305 212.5 183.472 205.667 183.139 197V130H215.639V251.5H183.139V230.5L186.639 231.25C183.639 237.917 178.805 243.083 172.139 246.75C165.472 250.25 158.472 252 151.139 252C141.305 252 132.555 249.833 124.889 245.5C117.389 241 111.472 234.75 107.139 226.75C102.972 218.75 100.889 209.333 100.889 198.5V130H132.889V198Z" fill="#274E63"/>
<path d="M10.25 272.5C15.4167 273.667 19.3333 274.25 22 274.25C25.1667 274.25 27.8333 272.75 30 269.75C32.1667 266.917 33.25 263.583 33.25 259.75V129.5H65.25V259.75C65.25 268.25 63.4167 275.917 59.75 282.75C56.0833 289.75 50.9167 295.167 44.25 299C37.75 302.833 30.3333 304.75 22 304.75C15.5 304.75 8.16667 303.833 0 302L7.25 271.75L10.25 272.5ZM49.5 68.25C54.5 68.25 58.5833 69.8333 61.75 73C64.9167 76.1667 66.5 80.25 66.5 85.25C66.5 90.4167 64.9167 94.6667 61.75 98C58.5833 101.167 54.5 102.75 49.5 102.75C44.3333 102.75 40.0833 101.167 36.75 98C33.5833 94.6667 32 90.5 32 85.5C32 80.3333 33.5833 76.1667 36.75 73C40.0833 69.8333 44.3333 68.25 49.5 68.25Z" fill="#274E63"/>
<rect x="1051.55" y="84.4748" width="29.9913" height="56.7171" transform="rotate(-135 1051.55 84.4748)" fill="#ED514E"/>
<rect x="1083.79" y="52.0212" width="29.9497" height="40.791" transform="rotate(-135 1083.79 52.0212)" fill="#F5CF02"/>
<rect x="1105.29" y="27.0777" width="26.4219" height="11.8718" transform="rotate(-135 1105.29 27.0777)" fill="#F5CF02"/>
<rect opacity="0.9" x="953.822" y="182.208" width="30" height="140" transform="rotate(-135 953.822 182.208)" fill="black"/>
<rect opacity="0.9" width="26.3906" height="30.4333" transform="matrix(-0.710458 -0.703739 0.710458 -0.703739 947.987 185.989)" fill="black"/>
<rect opacity="0.9" width="17.5938" height="21.9922" transform="matrix(-0.710458 -0.703739 0.710458 -0.703739 938.422 189.179)" fill="black"/>
<rect opacity="0.9" width="6.59766" height="21.9922" rx="3.29883" transform="matrix(-0.710458 -0.703739 0.710458 -0.703739 927.296 192.385)" fill="#1D2120"/>
<path d="M983.947 140.584C984.172 140.439 984.356 140.294 984.502 140.149C984.7 139.951 984.782 139.703 984.749 139.406C984.729 139.109 984.601 138.842 984.363 138.604L979.096 133.338L979.69 132.744L984.957 138.01C985.221 138.274 985.402 138.568 985.501 138.892C985.6 139.215 985.61 139.535 985.531 139.852C985.459 140.162 985.297 140.442 985.046 140.693C984.822 140.918 984.554 141.126 984.244 141.317L983.809 140.664L983.947 140.584ZM977.235 130.883C977.348 130.771 977.48 130.718 977.631 130.724C977.783 130.718 977.915 130.771 978.027 130.883C978.146 131.002 978.205 131.14 978.205 131.299C978.205 131.444 978.149 131.573 978.037 131.685C977.918 131.803 977.783 131.866 977.631 131.873C977.48 131.866 977.344 131.803 977.225 131.685C977.113 131.573 977.057 131.444 977.057 131.299C977.057 131.14 977.117 131.002 977.235 130.883ZM984.519 133.439C984.908 133.829 985.334 134.043 985.796 134.083C986.264 134.116 986.67 133.961 987.014 133.618C987.403 133.228 987.608 132.786 987.627 132.291C987.641 131.789 987.476 131.367 987.132 131.024L984.271 128.163L984.865 127.569L989.429 132.133L988.835 132.727L988.073 131.964L988.152 131.925C988.264 132.288 988.261 132.68 988.142 133.103C988.03 133.519 987.832 133.868 987.548 134.152C987.212 134.489 986.829 134.713 986.4 134.825C985.977 134.931 985.555 134.924 985.133 134.806C984.71 134.687 984.331 134.459 983.994 134.122L981.153 131.281L981.757 130.677L984.519 133.439ZM991.236 124.841C990.86 124.465 990.444 124.267 989.989 124.247C989.527 124.221 989.124 124.379 988.781 124.722C988.524 124.98 988.349 125.273 988.256 125.603C988.164 125.92 988.154 126.234 988.227 126.544C988.299 126.854 988.445 127.118 988.662 127.336L991.444 130.118L990.85 130.712L986.286 126.148L986.88 125.554L987.682 126.356L987.603 126.395C987.504 126.032 987.514 125.646 987.633 125.237C987.758 124.821 987.963 124.472 988.247 124.188C988.583 123.851 988.959 123.627 989.375 123.515C989.791 123.389 990.207 123.383 990.622 123.495C991.032 123.6 991.405 123.821 991.741 124.158L994.572 126.989L993.978 127.583L991.236 124.841ZM997.352 123.24C997.636 122.956 997.817 122.616 997.896 122.22C997.982 121.818 997.959 121.412 997.827 121.002C997.695 120.593 997.471 120.23 997.154 119.914C996.844 119.603 996.484 119.382 996.075 119.25C995.659 119.112 995.25 119.085 994.847 119.171C994.445 119.244 994.101 119.422 993.818 119.706C993.521 120.003 993.333 120.342 993.253 120.725C993.174 121.108 993.204 121.501 993.342 121.903C993.481 122.306 993.719 122.675 994.055 123.012C994.398 123.355 994.768 123.599 995.164 123.745C995.56 123.877 995.949 123.903 996.332 123.824C996.715 123.731 997.055 123.537 997.352 123.24ZM999.718 121.29C1000.17 121.738 1000.48 122.23 1000.66 122.765C1000.84 123.306 1000.87 123.844 1000.75 124.378C1000.62 124.913 1000.34 125.395 999.916 125.824C999.546 126.193 999.13 126.45 998.668 126.596C998.206 126.741 997.692 126.761 997.124 126.655L997.302 125.863C997.731 125.949 998.114 125.942 998.451 125.843C998.794 125.751 999.104 125.566 999.381 125.289C999.856 124.814 1000.06 124.259 999.995 123.626C999.942 122.992 999.645 122.405 999.104 121.864L998.342 121.101L998.411 121.052C998.602 121.507 998.652 121.992 998.56 122.507C998.461 123.015 998.239 123.441 997.896 123.784C997.487 124.193 997.022 124.461 996.5 124.586C995.979 124.711 995.451 124.692 994.917 124.527C994.389 124.355 993.903 124.048 993.461 123.606C993.019 123.164 992.712 122.679 992.541 122.151C992.376 121.616 992.356 121.088 992.481 120.567C992.607 120.046 992.874 119.58 993.283 119.171C993.633 118.821 994.059 118.6 994.56 118.508C995.055 118.409 995.527 118.445 995.976 118.617L995.936 118.696L994.837 117.597L995.431 117.003L999.718 121.29ZM1003.29 118.408C1002.87 118.831 1002.39 119.108 1001.87 119.24C1001.34 119.372 1000.81 119.355 1000.27 119.19C999.732 119.019 999.233 118.705 998.778 118.25C998.329 117.801 998.022 117.309 997.857 116.775C997.686 116.234 997.666 115.699 997.798 115.171C997.93 114.643 998.207 114.168 998.629 113.746C998.979 113.396 999.402 113.171 999.897 113.072C1000.39 112.96 1000.89 112.996 1001.39 113.181L1001.35 113.26L997.877 109.786L998.471 109.192L1005.42 116.141L1004.83 116.735L1003.78 115.686L1003.86 115.646C1004.04 116.148 1004.08 116.649 1003.98 117.151C1003.87 117.639 1003.64 118.058 1003.29 118.408ZM1002.78 117.854C1003.05 117.577 1003.24 117.237 1003.32 116.834C1003.4 116.425 1003.37 116.009 1003.24 115.587C1003.11 115.164 1002.88 114.792 1002.56 114.468C1002.24 114.145 1001.87 113.92 1001.45 113.795C1001.03 113.663 1000.62 113.64 1000.21 113.726C999.804 113.805 999.461 113.983 999.184 114.26C998.874 114.57 998.672 114.924 998.58 115.32C998.488 115.716 998.511 116.121 998.649 116.537C998.788 116.94 999.029 117.313 999.372 117.656C999.722 118.006 1000.1 118.253 1000.51 118.398C1000.92 118.53 1001.32 118.55 1001.72 118.458C1002.11 118.365 1002.47 118.164 1002.78 117.854ZM1008.77 112.908C1008.36 113.317 1007.89 113.588 1007.37 113.72C1006.85 113.845 1006.32 113.825 1005.78 113.66C1005.25 113.489 1004.77 113.182 1004.33 112.74C1003.89 112.298 1003.58 111.813 1003.41 111.285C1003.24 110.75 1003.22 110.222 1003.35 109.701C1003.48 109.173 1003.75 108.704 1004.16 108.295C1004.48 107.972 1004.88 107.76 1005.35 107.661C1005.82 107.556 1006.31 107.579 1006.82 107.731L1006.78 107.81L1005.7 106.731L1006.3 106.137L1010.86 110.7L1010.27 111.294L1009.26 110.285L1009.33 110.235C1009.48 110.73 1009.5 111.219 1009.41 111.7C1009.31 112.176 1009.1 112.578 1008.77 112.908ZM1008.25 112.364C1008.52 112.093 1008.7 111.763 1008.78 111.374C1008.87 110.984 1008.85 110.582 1008.72 110.166C1008.6 109.75 1008.37 109.374 1008.03 109.037C1007.7 108.707 1007.33 108.48 1006.91 108.354C1006.5 108.229 1006.09 108.209 1005.7 108.295C1005.31 108.374 1004.97 108.549 1004.7 108.82C1004.41 109.117 1004.22 109.46 1004.13 109.849C1004.04 110.239 1004.07 110.634 1004.21 111.037C1004.34 111.433 1004.58 111.803 1004.92 112.146C1005.26 112.489 1005.64 112.73 1006.04 112.868C1006.44 113 1006.83 113.024 1007.22 112.938C1007.61 112.852 1007.95 112.661 1008.25 112.364ZM1013.8 106.828C1014.27 106.366 1014.47 105.828 1014.43 105.214C1014.38 104.587 1014.09 104.01 1013.57 103.482C1013.22 103.139 1012.85 102.901 1012.46 102.769C1012.05 102.631 1011.66 102.604 1011.27 102.69C1010.89 102.769 1010.54 102.961 1010.24 103.264C1009.97 103.535 1009.79 103.875 1009.71 104.284C1009.64 104.68 1009.66 105.086 1009.78 105.501C1009.92 105.911 1010.14 106.274 1010.46 106.59C1010.77 106.907 1011.14 107.135 1011.56 107.273C1011.98 107.405 1012.39 107.435 1012.79 107.363C1013.2 107.277 1013.53 107.099 1013.8 106.828ZM1009.72 102.73C1010.14 102.314 1010.61 102.043 1011.13 101.918C1011.65 101.786 1012.17 101.806 1012.69 101.977C1013.23 102.142 1013.72 102.446 1014.16 102.888C1014.61 103.337 1014.92 103.832 1015.09 104.373C1015.26 104.901 1015.28 105.426 1015.16 105.947C1015.03 106.468 1014.76 106.937 1014.35 107.353C1014 107.696 1013.57 107.917 1013.05 108.016C1012.54 108.108 1012.07 108.075 1011.65 107.917L1011.69 107.848L1014.8 110.956L1014.21 111.55L1007.55 104.888L1008.14 104.294L1009.23 105.383L1009.15 105.422C1008.97 104.967 1008.94 104.488 1009.06 103.987C1009.17 103.479 1009.39 103.06 1009.72 102.73ZM1017.3 102.659C1017.43 102.527 1017.58 102.461 1017.73 102.461C1017.89 102.461 1018.04 102.523 1018.16 102.649C1018.3 102.787 1018.37 102.939 1018.38 103.104C1018.39 103.269 1018.32 103.418 1018.19 103.55C1018.06 103.682 1017.91 103.748 1017.73 103.748C1017.56 103.748 1017.41 103.678 1017.27 103.54C1017.14 103.414 1017.08 103.269 1017.09 103.104C1017.1 102.939 1017.17 102.791 1017.3 102.659ZM1021.69 98.8393C1021.92 98.6149 1022.1 98.3344 1022.24 97.9978C1022.37 97.6546 1022.43 97.3246 1022.42 97.0079L1023.24 96.9782C1023.24 97.3873 1023.15 97.8196 1022.97 98.275C1022.79 98.7304 1022.56 99.0966 1022.29 99.3738C1021.84 99.8226 1021.34 100.126 1020.78 100.285C1020.23 100.436 1019.69 100.436 1019.14 100.285C1018.58 100.126 1018.09 99.8259 1017.64 99.3837C1017.2 98.9416 1016.9 98.4466 1016.75 97.8988C1016.6 97.351 1016.6 96.8066 1016.76 96.2654C1016.92 95.711 1017.22 95.2094 1017.67 94.7607C1017.95 94.4835 1018.32 94.2558 1018.77 94.0776C1019.22 93.8928 1019.65 93.8037 1020.07 93.8103L1020.02 94.632C1019.71 94.6122 1019.39 94.6716 1019.05 94.8102C1018.71 94.9422 1018.42 95.1204 1018.2 95.3447C1017.87 95.6747 1017.65 96.0443 1017.54 96.4535C1017.43 96.8561 1017.44 97.2619 1017.55 97.6711C1017.67 98.0803 1017.9 98.4532 1018.24 98.7898C1018.76 99.3111 1019.34 99.5751 1019.98 99.5817C1020.62 99.5883 1021.19 99.3408 1021.69 98.8393ZM1026.39 94.1977C1026.7 93.8941 1026.89 93.5476 1026.98 93.1583C1027.07 92.7623 1027.05 92.3663 1026.92 91.9703C1026.79 91.5611 1026.55 91.185 1026.21 90.8418C1025.86 90.4986 1025.49 90.2643 1025.09 90.1389C1024.68 90.0003 1024.29 89.9772 1023.89 90.0696C1023.5 90.1554 1023.15 90.3501 1022.85 90.6537C1022.38 91.1223 1022.17 91.6667 1022.21 92.2871C1022.25 92.9075 1022.53 93.4784 1023.05 93.9997C1023.57 94.5211 1024.14 94.8016 1024.76 94.8412C1025.38 94.8808 1025.93 94.6663 1026.39 94.1977ZM1022.32 90.1191C1022.74 89.6967 1023.21 89.4196 1023.74 89.2876C1024.27 89.1556 1024.8 89.1721 1025.33 89.3371C1025.87 89.5021 1026.36 89.8056 1026.8 90.2478C1027.24 90.69 1027.55 91.1784 1027.71 91.7129C1027.88 92.2475 1027.89 92.7788 1027.76 93.3068C1027.63 93.8347 1027.35 94.3099 1026.93 94.7323C1026.51 95.1481 1026.04 95.422 1025.51 95.5539C1024.98 95.6859 1024.45 95.6694 1023.92 95.5044C1023.38 95.3395 1022.9 95.0359 1022.45 94.5937C1022.01 94.1515 1021.71 93.6631 1021.54 93.1286C1021.38 92.594 1021.36 92.0627 1021.49 91.5347C1021.63 91.0068 1021.9 90.5349 1022.32 90.1191ZM1033.2 82.6633C1032.85 82.3135 1032.46 82.1287 1032.05 82.1089C1031.63 82.0891 1031.27 82.2343 1030.96 82.5445C1030.6 82.9008 1030.41 83.3067 1030.39 83.7621C1030.37 84.2175 1030.52 84.6003 1030.83 84.9104L1033.74 87.8209L1033.15 88.4149L1030.3 85.5638C1029.95 85.214 1029.56 85.0292 1029.15 85.0094C1028.74 84.983 1028.38 85.1216 1028.08 85.4252C1027.84 85.6628 1027.69 85.9367 1027.61 86.2469C1027.53 86.5505 1027.54 86.8507 1027.62 87.1477C1027.71 87.4447 1027.86 87.7021 1028.08 87.9199L1030.86 90.7016L1030.27 91.2956L1025.7 86.7319L1026.3 86.138L1027.1 86.9398L1027.02 86.9794C1026.91 86.6231 1026.91 86.2502 1027.01 85.8608C1027.11 85.4714 1027.29 85.148 1027.54 84.8906C1027.83 84.6069 1028.18 84.4155 1028.59 84.3165C1029 84.2109 1029.4 84.2241 1029.8 84.3561C1029.7 83.9535 1029.71 83.5344 1029.83 83.0988C1029.94 82.6567 1030.14 82.2937 1030.42 82.0099C1030.74 81.6931 1031.09 81.4786 1031.48 81.3664C1031.87 81.2476 1032.25 81.2443 1032.64 81.3565C1033.03 81.4555 1033.38 81.6601 1033.69 81.9703L1036.64 84.9203L1036.05 85.5143L1033.2 82.6633Z" fill="white"/>
<circle cx="965.608" cy="150" r="9" fill="#D9D9D9"/>
<rect opacity="0.9" x="970.679" y="152.485" width="10" height="2" rx="1" transform="rotate(-135 970.679 152.485)" fill="black"/>
<path d="M961.383 155.253C960.951 155.473 960.489 155.012 960.71 154.58L964.034 148.073C964.188 147.77 964.593 147.706 964.833 147.947L968.016 151.13C968.256 151.37 968.192 151.774 967.89 151.929L961.383 155.253Z" fill="black"/>
<line opacity="0.6" x1="1032.96" y1="60.6464" x2="1054.17" y2="81.8526" stroke="black"/>
<rect x="1047.73" y="59.6854" width="39.1531" height="7.72719" rx="3.86359" transform="rotate(-45 1047.73 59.6854)" fill="#F5CF02"/>
</svg>
